# xmcd
#
# Track frame offsets:
#	150
#	19594
#	40009
#	66012
#	90277
#	115917
#	138131
#	163474
#	181942
#	206977
#
# Disc length: 3084 seconds
#
# Revision: 0
# Processed by: cddbd v1.5.2PL0 Copyright (c) Steve Scherf et al.
# Submitted via: audiograbber 1.83.01
#
DISCID=800c0a0a
DTITLE=Rainbow - Stranger In Us All
DYEAR=1900
DGENRE=
TTITLE0=Rainbow - Wolf To The Moon
TTITLE1=Rainbow - Cold Hearted Woman
TTITLE2=Rainbow - Hunting Humans
TTITLE3=Rainbow - Stand And Fight
TTITLE4=Rainbow - Ariel
TTITLE5=Rainbow - Too Late For Tears
TTITLE6=Rainbow - Black Masquerade
TTITLE7=Rainbow - Silence
TTITLE8=Rainbow - Hall Of The Mountain King
TTITLE9=Rainbow - Still I'm Sad
EXTD=
EXTT0=
EXTT1=
EXTT2=
EXTT3=
EXTT4=
EXTT5=
EXTT6=
EXTT7=
EXTT8=
EXTT9=
PLAYORDER=
